<svg width="334" height="59" viewBox="0 0 334 59" fill="none" xmlns="http://www.w3.org/2000/svg">
<path d="M2.656 0.444973L13.504 11.389V58.429H11.2L0.352 47.581H2.656V0.444973ZM68.6605 0.444973L79.6045 11.389V58.429H77.3005L66.3565 47.485H68.6605V0.444973ZM32.0845 4.28498L43.0285 18.109V58.429H40.7245L29.7805 47.485H32.0845V4.28498ZM66.3565 40.861V43.741L32.0845 0.444973C35.6045 3.45297 38.8685 6.78097 41.8765 10.429C44.9485 14.013 47.9245 17.597 50.8045 21.181L66.3565 40.861ZM115.275 47.101C119.371 47.101 123.243 46.109 126.891 44.125C130.539 42.077 133.387 39.261 135.435 35.677L146.283 46.621C144.235 50.205 141.419 52.989 137.835 54.973C134.251 56.957 130.411 57.949 126.315 57.949C123.179 57.949 120.363 57.437 117.867 56.413C115.435 55.389 113.163 54.045 111.051 52.381C108.939 50.717 106.923 48.861 105.003 46.813C103.083 44.765 101.099 42.717 99.0513 40.669C101.227 42.717 103.723 44.317 106.539 45.469C109.355 46.557 112.267 47.101 115.275 47.101ZM106.731 42.973C102.891 41.245 99.8193 38.653 97.5153 35.197C95.2113 31.677 94.0593 27.805 94.0593 23.581C94.0593 20.701 94.6033 17.981 95.6913 15.421C96.8433 12.861 98.3473 10.621 100.203 8.70098C102.123 6.78097 104.331 5.27697 106.827 4.18898C109.387 3.03698 112.107 2.46098 114.987 2.46098C118.507 2.46098 121.803 3.26097 124.875 4.86097C128.011 6.46098 130.603 8.66898 132.651 11.485H135.435C134.923 10.717 134.411 9.98097 133.899 9.27697C133.387 8.50897 132.811 7.80497 132.171 7.16497C134.603 9.59698 137.099 12.029 139.659 14.461C142.219 16.893 144.427 19.549 146.283 22.429H143.595C142.251 21.021 140.971 19.773 139.755 18.685C138.539 17.533 137.259 16.573 135.915 15.805C134.635 14.973 133.227 14.365 131.691 13.981C130.155 13.533 128.363 13.309 126.315 13.309C123.371 13.309 120.587 13.853 117.963 14.941C115.403 16.029 113.131 17.533 111.147 19.453C109.227 21.373 107.691 23.645 106.539 26.269C105.451 28.829 104.907 31.581 104.907 34.525C104.907 37.341 105.515 40.157 106.731 42.973ZM208.729 11.389V39.805C208.729 42.621 208.185 45.181 207.097 47.485C206.073 49.725 204.697 51.677 202.969 53.341C201.241 54.941 199.225 56.189 196.921 57.085C194.681 57.981 192.377 58.429 190.009 58.429C187.641 58.429 185.273 57.981 182.905 57.085C180.537 56.125 178.393 54.621 176.473 52.573L166.009 42.109C167.673 43.837 169.625 45.181 171.865 46.141C174.105 47.037 176.537 47.485 179.161 47.485C181.721 47.485 184.121 47.005 186.361 46.045C188.665 45.021 190.649 43.677 192.313 42.013C194.041 40.349 195.385 38.397 196.345 36.157C197.369 33.853 197.881 31.421 197.881 28.861V0.444973L208.729 11.389ZM174.361 44.509C172.697 43.997 171.161 43.229 169.753 42.205C168.345 41.181 167.129 39.997 166.105 38.653C165.081 37.309 164.281 35.805 163.705 34.141C163.129 32.413 162.841 30.653 162.841 28.861V0.444973L173.689 11.389V39.805C173.689 41.469 173.913 43.037 174.361 44.509ZM236.568 13.693L225.624 2.84498H247.896C250.776 2.84498 253.048 3.80498 254.712 5.72497C256.44 7.64498 257.304 9.98098 257.304 12.733C257.304 13.181 257.272 13.501 257.208 13.693H236.568ZM236.568 35.005L225.624 24.061C228.568 24.061 231.608 24.061 234.744 24.061C237.944 23.997 241.016 23.965 243.96 23.965H247.8C249.336 23.965 250.744 24.285 252.024 24.925C253.368 25.501 254.488 26.301 255.384 27.325C256.344 28.285 257.08 29.437 257.592 30.781C258.168 32.125 258.456 33.533 258.456 35.005H236.568ZM271.704 46.045C271.704 47.709 271.352 49.309 270.648 50.845C270.008 52.317 269.112 53.629 267.96 54.781C266.808 55.869 265.464 56.765 263.928 57.469C262.456 58.109 260.888 58.429 259.224 58.429H236.568L225.624 47.485H248.376C250.168 47.485 251.8 47.165 253.272 46.525C254.808 45.821 256.12 44.893 257.208 43.741C258.36 42.525 259.224 41.149 259.8 39.613C260.44 38.013 260.76 36.349 260.76 34.621C260.76 32.125 260.088 29.821 258.744 27.709C257.4 25.533 255.608 23.901 253.368 22.813C255.416 21.789 256.952 20.349 257.976 18.493C259.064 16.573 259.608 14.493 259.608 12.253C259.608 10.973 259.416 9.75697 259.032 8.60498C258.712 7.38897 258.168 6.26897 257.4 5.24497L267.192 14.845C268.408 16.061 269.272 17.405 269.784 18.877C270.296 20.349 270.552 21.917 270.552 23.581C270.552 25.629 270.04 27.517 269.016 29.245C267.992 30.973 266.616 32.349 264.888 33.373C265.912 34.397 266.84 35.357 267.672 36.253C268.568 37.085 269.304 37.981 269.88 38.941C270.456 39.837 270.904 40.861 271.224 42.013C271.544 43.165 271.704 44.509 271.704 46.045ZM333.108 23.677C333.108 25.277 332.82 26.781 332.244 28.189C331.668 29.533 330.868 30.717 329.844 31.741C328.82 32.701 327.604 33.469 326.196 34.045C324.852 34.621 323.38 34.909 321.78 34.909H319.092L333.108 58.429H330.42C328.564 56.637 326.74 54.845 324.948 53.053C323.156 51.261 321.332 49.437 319.476 47.581H322.26C319.956 43.613 317.588 39.709 315.156 35.869C312.788 31.965 310.452 28.029 308.148 24.061H310.932C312.596 24.061 314.1 23.773 315.444 23.197C316.852 22.557 318.068 21.725 319.092 20.701C320.116 19.613 320.884 18.365 321.396 16.957C321.972 15.485 322.26 13.949 322.26 12.349C322.26 9.72497 321.492 7.38897 319.956 5.34097L329.748 14.941C331.028 16.157 331.892 17.501 332.34 18.973C332.852 20.445 333.108 22.013 333.108 23.677ZM299.7 13.789L288.852 2.94098H310.452C313.332 2.94098 315.604 3.90097 317.268 5.82097C318.996 7.67698 319.86 9.98098 319.86 12.733C319.86 12.925 319.828 13.117 319.764 13.309C319.764 13.501 319.764 13.661 319.764 13.789H299.7ZM289.044 24.157C291.156 24.157 292.788 24.157 293.94 24.157C295.156 24.093 296.244 24.061 297.204 24.061C298.228 24.061 299.316 24.061 300.468 24.061C301.684 24.061 303.348 24.061 305.46 24.061C306.548 25.917 307.636 27.741 308.724 29.533C309.812 31.325 310.9 33.117 311.988 34.909L299.988 35.005V58.429H297.588L286.74 47.581H289.044V24.157Z" fill="#1F1D1D"/>
</svg>
