<svg width="70" height="70" viewBox="0 0 70 70" fill="none" xmlns="http://www.w3.org/2000/svg">
<path d="M35 0C15.6719 0 0 15.6719 0 35C0 54.3281 15.6719 70 35 70C54.3281 70 70 54.3281 70 35C70 15.6719 54.3281 0 35 0ZM37.8516 43.6562C34.4219 48.4844 27.5313 49.8906 22.1563 47.8203C16.7656 45.7656 12.9375 40.0703 13.3984 34.2656C13.5156 27.1641 20.0547 20.9375 27.1563 21.1797C30.5625 21.0234 33.7656 22.5 36.375 24.5859C35.2578 25.8516 34.1094 27.0703 32.875 28.2031C29.7422 26.0391 25.2812 25.4219 22.1484 27.9219C17.6641 31.0234 17.4609 38.3437 21.7734 41.6797C25.9688 45.4844 33.8984 43.5938 35.0625 37.7656C32.4375 37.7266 29.7969 37.7656 27.1719 37.6797C27.1641 36.1094 27.1563 34.5469 27.1641 32.9766C31.5547 32.9609 35.9531 32.9531 40.3516 32.9922C40.6094 36.6875 40.1172 40.6094 37.8516 43.6562V43.6562ZM56.7969 36.9141C55.4844 36.9297 54.1719 36.9375 52.8594 36.9453C52.8437 38.2578 52.8359 39.5703 52.8359 40.8828H48.9062C48.8906 39.5703 48.8906 38.2656 48.8828 36.9531C47.5703 36.9375 46.2578 36.9297 44.9453 36.9141V33C46.2578 32.9844 47.5703 32.9766 48.8828 32.9766C48.8906 31.6641 48.9062 30.3516 48.9141 29.0391H52.8359L52.8594 32.9766C54.1719 32.9922 55.4844 32.9922 56.7969 33V36.9141Z" fill="#F8F8F8"/>
</svg>
